<?xml version="1.0" encoding="utf-8"?>
<!-- Generator: Adobe Illustrator 16.0.0, SVG Export Plug-In . SVG Version: 6.00 Build 0)  -->
<!DOCTYPE svg PUBLIC "-//W3C//DTD SVG 1.1//EN" "http://www.w3.org/Graphics/SVG/1.1/DTD/svg11.dtd">
<svg version="1.1" id="Calque_1" xmlns="http://www.w3.org/2000/svg" xmlns:xlink="http://www.w3.org/1999/xlink" x="0px" y="0px"
	 width="841.89px" height="595.28px" viewBox="0 0 841.89 595.28" enable-background="new 0 0 841.89 595.28" xml:space="preserve">
<rect x="252" y="90" fill="none" stroke="#000000" stroke-miterlimit="10" width="45" height="27"/>
<rect x="90" y="198" fill="none" stroke="#000000" stroke-miterlimit="10" width="63" height="27"/>
<circle cx="274.5" cy="103.5" r="4.5"/>
<rect x="297" y="90" fill="none" stroke="#000000" stroke-miterlimit="10" width="45" height="27"/>
<circle cx="319.5" cy="103.5" r="4.5"/>
<rect x="342" y="90" fill="none" stroke="#000000" stroke-miterlimit="10" width="45" height="27"/>
<circle cx="364.5" cy="103.5" r="4.5"/>
<rect x="576" y="198" fill="none" stroke="#000000" stroke-miterlimit="10" width="45" height="27"/>
<circle cx="598.5" cy="211.5" r="4.5"/>
<rect x="216" y="99" fill="none" width="36" height="9"/>
<text transform="matrix(1 0 0 1 216 106.1001)" font-family="'MyriadPro-Semibold'" font-size="10">list(t)</text>
<rect x="36" y="207" fill="none" width="54" height="9"/>
<text transform="matrix(1 0 0 1 36 214.1001)" font-family="'MyriadPro-Semibold'" font-size="10">t(VarDecl)</text>
<rect x="90" y="207" fill="none" width="63" height="18"/>
<text transform="matrix(1 0 0 1 101.8027 215.52)"><tspan x="0" y="0" font-family="'MyriadPro-It'" font-size="12">&quot;chaine</tspan><tspan x="35.988" y="0" font-family="'MyriadPro-It'" font-size="12">&quot;</tspan></text>
<rect x="225" y="198" fill="none" stroke="#000000" stroke-miterlimit="10" width="63" height="27"/>
<rect x="180" y="207" fill="none" width="54" height="9"/>
<text transform="matrix(1 0 0 1 180 214.1001)" font-family="'MyriadPro-Semibold'" font-size="10">t(VarAff)</text>
<rect x="405" y="207" fill="none" width="63" height="9"/>
<text transform="matrix(1 0 0 1 405 214.1001)" font-family="'MyriadPro-Semibold'" font-size="10">t(ForState)</text>
<rect x="378" y="288" fill="none" width="63" height="9"/>
<text transform="matrix(1 0 0 1 378 295.1001)" font-family="'MyriadPro-Semibold'" font-size="10">t(IfState)</text>
<rect x="369" y="378" fill="none" width="63" height="9"/>
<text transform="matrix(1 0 0 1 369 385.0996)" font-family="'MyriadPro-Semibold'" font-size="10">t(FuncCall)</text>
<rect x="288" y="225" fill="none" width="72" height="9"/>
<text transform="matrix(1 0 0 1 303.7603 230.6797)" font-family="'MyriadPro-It'" font-size="8">t_var(String)</text>
<rect x="225" y="207" fill="none" width="63" height="18"/>
<text transform="matrix(1 0 0 1 236.9224 215.52)"><tspan x="0" y="0" font-family="'MyriadPro-It'" font-size="12">&quot;</tspan><tspan x="3.408" y="0" font-family="'MyriadPro-It'" font-size="12">chaine</tspan><tspan x="35.747" y="0" font-family="'MyriadPro-It'" font-size="12">&quot;</tspan></text>
<rect x="288" y="198" fill="none" stroke="#000000" stroke-miterlimit="10" width="72" height="27"/>
<rect x="288" y="207" fill="none" width="72" height="18"/>
<text transform="matrix(1 0 0 1 297.4028 215.52)"><tspan x="0" y="0" font-family="'MyriadPro-It'" font-size="12">&quot;</tspan><tspan x="3.408" y="0" font-family="'MyriadPro-It'" font-size="12">password</tspan><tspan x="49.786" y="0" font-family="'MyriadPro-It'" font-size="12">&quot;</tspan></text>
<rect x="90" y="225" fill="none" width="63" height="9"/>
<text transform="matrix(1 0 0 1 112.3364 230.6797)" font-family="'MyriadPro-It'" font-size="8">string</text>
<rect x="459" y="198" fill="none" stroke="#000000" stroke-miterlimit="10" width="45" height="27"/>
<rect x="459" y="207" fill="none" width="45" height="18"/>
<text transform="matrix(1 0 0 1 473.6221 215.52)" font-family="'MyriadPro-It'" font-size="12">iter</text>
<rect x="459" y="225" fill="none" width="45" height="9"/>
<text transform="matrix(1 0 0 1 472.3359 230.6797)" font-family="'MyriadPro-It'" font-size="8">string</text>
<rect x="423" y="369" fill="none" stroke="#000000" stroke-miterlimit="10" width="54" height="27"/>
<rect x="423" y="378" fill="none" width="54" height="18"/>
<text transform="matrix(1 0 0 1 436.7881 386.5195)" font-family="'MyriadPro-It'" font-size="12">printf</text>
<rect x="423" y="396" fill="none" width="54" height="9"/>
<text transform="matrix(1 0 0 1 440.8359 401.6797)" font-family="'MyriadPro-It'" font-size="8">string</text>
<rect x="423" y="279" fill="none" stroke="#000000" stroke-miterlimit="10" width="144" height="27"/>
<rect x="423" y="288" fill="none" width="144" height="27"/>
<text transform="matrix(1 0 0 1 430.3164 295.1001)" font-family="'MyriadPro-It'" font-size="10">strcmp(chaine, &quot;password&quot;) == 0</text>
<rect x="423" y="306" fill="none" width="144" height="9"/>
<text transform="matrix(1 0 0 1 485.8359 311.6797)" font-family="'MyriadPro-It'" font-size="8">string</text>
<rect x="504" y="198" fill="none" stroke="#000000" stroke-miterlimit="10" width="36" height="27"/>
<rect x="504" y="207" fill="none" width="36" height="18"/>
<text transform="matrix(1 0 0 1 519.0479 215.52)" font-family="'MyriadPro-It'" font-size="12">1</text>
<rect x="504" y="225" fill="none" width="36" height="9"/>
<text transform="matrix(1 0 0 1 512.8359 230.6797)" font-family="'MyriadPro-It'" font-size="8">string</text>
<rect x="540" y="198" fill="none" stroke="#000000" stroke-miterlimit="10" width="36" height="27"/>
<rect x="540" y="207" fill="none" width="36" height="18"/>
<text transform="matrix(1 0 0 1 555.0479 215.52)" font-family="'MyriadPro-It'" font-size="12">5</text>
<rect x="540" y="225" fill="none" width="36" height="9"/>
<text transform="matrix(1 0 0 1 548.8359 230.6797)" font-family="'MyriadPro-It'" font-size="8">string</text>
<rect x="576" y="189" fill="none" width="45" height="9"/>
<text transform="matrix(1 0 0 1 590.4004 194.6797)" font-family="'MyriadPro-It'" font-size="8">list(t)</text>
<rect x="477" y="369" fill="none" stroke="#000000" stroke-miterlimit="10" width="45" height="27"/>
<circle cx="499.5" cy="382.5" r="4.5"/>
<rect x="477" y="360" fill="none" width="45" height="9"/>
<text transform="matrix(1 0 0 1 484.2207 365.6797)" font-family="'MyriadPro-It'" font-size="8">list(t_var)</text>
<rect x="567" y="279" fill="none" stroke="#000000" stroke-miterlimit="10" width="45" height="27"/>
<circle cx="589.5" cy="292.5" r="4.5"/>
<rect x="567" y="270" fill="none" width="45" height="9"/>
<text transform="matrix(1 0 0 1 581.4004 275.6797)" font-family="'MyriadPro-It'" font-size="8">list(t)</text>
<rect x="612" y="279" fill="none" stroke="#000000" stroke-miterlimit="10" width="45" height="27"/>
<circle cx="634.5" cy="292.5" r="4.5"/>
<rect x="612" y="270" fill="none" width="45" height="9"/>
<text transform="matrix(1 0 0 1 626.4004 275.6797)" font-family="'MyriadPro-It'" font-size="8">list(t)</text>
<rect x="225" y="225" fill="none" width="63" height="9"/>
<text transform="matrix(1 0 0 1 247.3364 230.6797)" font-family="'MyriadPro-It'" font-size="8">string</text>
<rect x="468" y="450" fill="none" width="72" height="9"/>
<text transform="matrix(1 0 0 1 483.7598 455.6797)" font-family="'MyriadPro-It'" font-size="8">t_var(String)</text>
<rect x="468" y="423" fill="none" stroke="#000000" stroke-miterlimit="10" width="72" height="27"/>
<rect x="468" y="432" fill="none" width="72" height="18"/>
<text transform="matrix(1 0 0 1 475.3281 440.5195)"><tspan x="0" y="0" font-family="'MyriadPro-It'" font-size="12">&quot;</tspan><tspan x="3.407" y="0" font-family="'MyriadPro-It'" font-size="10">Hello master</tspan><tspan x="53.696" y="0" font-family="'MyriadPro-It'" font-size="12">&quot;</tspan></text>
<rect x="702" y="450" fill="none" width="72" height="9"/>
<text transform="matrix(1 0 0 1 717.7598 455.6797)" font-family="'MyriadPro-It'" font-size="8">t_var(String)</text>
<rect x="702" y="423" fill="none" stroke="#000000" stroke-miterlimit="10" width="72" height="27"/>
<rect x="702" y="432" fill="none" width="72" height="18"/>
<text transform="matrix(1 0 0 1 715.7422 440.5195)"><tspan x="0" y="0" font-family="'MyriadPro-It'" font-size="12">&quot;</tspan><tspan x="3.408" y="0" font-family="'MyriadPro-It'" font-size="10">Try again</tspan><tspan x="40.867" y="0" font-family="'MyriadPro-It'" font-size="12">&quot;</tspan></text>
<rect x="603" y="378" fill="none" width="63" height="9"/>
<text transform="matrix(1 0 0 1 603 385.0996)" font-family="'MyriadPro-Semibold'" font-size="10">t(FuncCall)</text>
<rect x="657" y="369" fill="none" stroke="#000000" stroke-miterlimit="10" width="54" height="27"/>
<rect x="657" y="378" fill="none" width="54" height="18"/>
<text transform="matrix(1 0 0 1 670.7881 386.5195)" font-family="'MyriadPro-It'" font-size="12">printf</text>
<rect x="657" y="396" fill="none" width="54" height="9"/>
<text transform="matrix(1 0 0 1 674.8359 401.6797)" font-family="'MyriadPro-It'" font-size="8">string</text>
<rect x="711" y="369" fill="none" stroke="#000000" stroke-miterlimit="10" width="45" height="27"/>
<circle cx="733.5" cy="382.5" r="4.5"/>
<rect x="711" y="360" fill="none" width="45" height="9"/>
<text transform="matrix(1 0 0 1 718.2207 365.6797)" font-family="'MyriadPro-It'" font-size="8">list(t_var)</text>
<line stroke="#000000" stroke-miterlimit="10" x1="270" y1="117" x2="117" y2="198"/>
<line stroke="#000000" stroke-miterlimit="10" x1="315" y1="117" x2="252" y2="198"/>
<line fill="none" stroke="#000000" stroke-miterlimit="10" x1="360" y1="117" x2="477" y2="198"/>
<line fill="none" stroke="#000000" stroke-miterlimit="10" x1="594" y1="225" x2="495" y2="279"/>
<line fill="none" stroke="#000000" stroke-miterlimit="10" x1="585" y1="306" x2="450" y2="369"/>
<line fill="none" stroke="#000000" stroke-miterlimit="10" x1="639" y1="306" x2="684" y2="369"/>
<line fill="none" stroke="#000000" stroke-miterlimit="10" x1="495" y1="396" x2="495" y2="423"/>
<line fill="none" stroke="#000000" stroke-miterlimit="10" x1="738" y1="396" x2="738" y2="423"/>
</svg>
