<?xml version="1.0" encoding="utf-8"?>
<!-- Generator: Adobe Illustrator 16.0.0, SVG Export Plug-In . SVG Version: 6.00 Build 0)  -->
<!DOCTYPE svg PUBLIC "-//W3C//DTD SVG 1.1//EN" "http://www.w3.org/Graphics/SVG/1.1/DTD/svg11.dtd">
<svg version="1.1" id="Calque_1" xmlns="http://www.w3.org/2000/svg" xmlns:xlink="http://www.w3.org/1999/xlink" x="0px" y="0px"
	 width="841.89px" height="595.28px" viewBox="0 0 841.89 595.28" enable-background="new 0 0 841.89 595.28" xml:space="preserve">
<rect x="72" y="72" fill="#FFFFFF" stroke="#000000" stroke-miterlimit="10" width="108" height="63"/>
<rect x="90" y="90" fill="none" width="72" height="27"/>
<text transform="matrix(1 0 0 1 90 98.52)"><tspan x="0" y="0" font-family="'MyriadPro-Semibold'" font-size="12">Programme </tspan><tspan x="0" y="14.4" font-family="'MyriadPro-Semibold'" font-size="12">original</tspan></text>
<rect x="144" y="117" fill="#E30613" stroke="#000000" stroke-miterlimit="10" width="54" height="27"/>
<rect x="153" y="126" fill="none" width="63" height="27"/>
<text transform="matrix(1 0 0 1 153 131.6797)" fill="#FFFFFF" font-family="'MyriadPro-Bold'" font-size="8">Free basic</text>
<rect x="405" y="72" fill="#FFFFFF" stroke="#000000" stroke-miterlimit="10" width="108" height="63"/>
<rect x="423" y="90" fill="none" width="72" height="27"/>
<text transform="matrix(1 0 0 1 423 98.52)"><tspan x="0" y="0" font-family="'MyriadPro-Semibold'" font-size="12">Programme </tspan><tspan x="0" y="14.4" font-family="'MyriadPro-Semibold'" font-size="12">compilé</tspan></text>
<rect x="243" y="72" fill="#FFFFFF" stroke="#000000" stroke-width="2" stroke-miterlimit="10" width="108" height="63"/>
<rect x="270" y="90" fill="none" width="72" height="27"/>
<text transform="matrix(1 0 0 1 270 98.52)" font-family="'MyriadPro-Bold'" font-size="12">./fbtocc</text>
<rect x="477" y="117" fill="#E30613" stroke="#000000" stroke-miterlimit="10" width="54" height="27"/>
<rect x="486" y="126" fill="none" width="63" height="27"/>
<text transform="matrix(1 0 0 1 486 131.6797)" fill="#FFFFFF" font-family="'MyriadPro-Bold'" font-size="8">C standard</text>
<g>
	<g>
		<line fill="none" stroke="#000000" stroke-miterlimit="10" x1="180" y1="99" x2="240.174" y2="99"/>
		<g>
			<polygon points="234.263,102.181 233.921,101.24 240.077,99 233.921,96.76 234.263,95.82 243,99 			"/>
		</g>
	</g>
</g>
<g>
	<g>
		<line fill="none" stroke="#000000" stroke-miterlimit="10" x1="351" y1="99" x2="402.174" y2="99"/>
		<g>
			<polygon points="396.263,102.181 395.921,101.24 402.077,99 395.921,96.76 396.263,95.82 405,99 			"/>
		</g>
	</g>
</g>
</svg>
